<svg width="31" height="26" viewBox="0 0 31 26" fill="none" xmlns="http://www.w3.org/2000/svg">
<path d="M8.92969 23.8213C8.73047 24.0557 8.51953 24.2695 8.29688 24.4629C8.07422 24.6504 7.84277 24.8145 7.60254 24.9551C7.19238 25.2012 6.75 25.3828 6.27539 25.5C5.80078 25.623 5.30273 25.6816 4.78125 25.6758C4.25391 25.6699 3.76758 25.5908 3.32227 25.4385C2.88281 25.2803 2.4873 25.0635 2.13574 24.7881C1.78418 24.5186 1.47656 24.1992 1.21289 23.8301C0.949219 23.4609 0.729492 23.0596 0.553711 22.626C0.37207 22.1982 0.234375 21.75 0.140625 21.2812C0.0527344 20.8066 0.00585938 20.3291 0 19.8486V18.3633C0.00585938 17.8887 0.046875 17.417 0.123047 16.9482C0.205078 16.4736 0.328125 16.0195 0.492188 15.5859C0.65625 15.1523 0.861328 14.751 1.10742 14.3818C1.35352 14.0068 1.64941 13.6816 1.99512 13.4062C2.33496 13.1367 2.72168 12.9229 3.15527 12.7646C3.58887 12.6064 4.0752 12.5273 4.61426 12.5273C5.21191 12.5273 5.7627 12.6211 6.2666 12.8086C6.77051 12.9902 7.20996 13.251 7.58496 13.5908C7.95996 13.9365 8.26172 14.3525 8.49023 14.8389C8.71875 15.3193 8.85938 15.8584 8.91211 16.4561H7.30371C7.23926 16.0869 7.13965 15.7471 7.00488 15.4365C6.87012 15.1201 6.69434 14.8506 6.47754 14.6279C6.25488 14.4053 5.99121 14.2324 5.68652 14.1094C5.38184 13.9805 5.02734 13.916 4.62305 13.916C4.23633 13.916 3.89355 13.9834 3.59473 14.1182C3.2959 14.2471 3.03516 14.4229 2.8125 14.6455C2.58984 14.8682 2.40527 15.1289 2.25879 15.4277C2.1123 15.7207 1.99219 16.0312 1.89844 16.3594C1.80469 16.6875 1.7373 17.0215 1.69629 17.3613C1.65527 17.7012 1.63477 18.0293 1.63477 18.3457V19.8486C1.64062 20.1709 1.66699 20.5049 1.71387 20.8506C1.7666 21.1904 1.8457 21.5244 1.95117 21.8525C2.05664 22.1807 2.19141 22.4912 2.35547 22.7842C2.51953 23.0771 2.71875 23.335 2.95312 23.5576C3.18164 23.7803 3.44824 23.959 3.75293 24.0938C4.05762 24.2227 4.40332 24.29 4.79004 24.2959C5.0127 24.3018 5.24414 24.293 5.48438 24.2695C5.73047 24.2461 5.96777 24.1992 6.19629 24.1289C6.4248 24.0586 6.63867 23.9648 6.83789 23.8477C7.03711 23.7246 7.2041 23.5664 7.33887 23.373L7.35645 20.499H4.75488V19.1279H8.90332L8.92969 23.8213ZM15.6621 25.6758C14.9941 25.6758 14.3789 25.5615 13.8164 25.333C13.2598 25.1045 12.7822 24.7852 12.3838 24.375C11.9854 23.9648 11.6748 23.4785 11.4521 22.916C11.2295 22.3535 11.1182 21.7412 11.1182 21.0791V20.71C11.1182 19.9424 11.2412 19.2568 11.4873 18.6533C11.7334 18.0439 12.0615 17.5283 12.4717 17.1064C12.876 16.6904 13.3359 16.3711 13.8516 16.1484C14.373 15.9258 14.9062 15.8145 15.4512 15.8145C16.1367 15.8145 16.7344 15.9346 17.2441 16.1748C17.7598 16.4092 18.1875 16.7344 18.5273 17.1504C18.8672 17.5723 19.1191 18.0674 19.2832 18.6357C19.4531 19.2041 19.5381 19.8193 19.5381 20.4814V21.2109H12.7441V21.2725C12.7852 21.7354 12.876 22.1426 13.0166 22.4941C13.1631 22.8457 13.3623 23.1562 13.6143 23.4258C13.8721 23.7129 14.1826 23.9385 14.5459 24.1025C14.9092 24.2666 15.3105 24.3486 15.75 24.3486C16.3301 24.3486 16.8457 24.2314 17.2969 23.9971C17.748 23.7627 18.123 23.4521 18.4219 23.0654L19.415 23.8389C19.0986 24.3193 18.624 24.7471 17.9912 25.1221C17.3643 25.4912 16.5879 25.6758 15.6621 25.6758ZM15.4512 17.1504C15.123 17.1504 14.8125 17.2119 14.5195 17.335C14.2266 17.4521 13.9629 17.625 13.7285 17.8535C13.4941 18.0879 13.2949 18.375 13.1309 18.7148C12.9727 19.0488 12.8613 19.4355 12.7969 19.875H17.9121V19.7959C17.9121 19.5029 17.8564 19.1895 17.7451 18.8555C17.6338 18.5156 17.4785 18.2227 17.2793 17.9766C17.0801 17.7305 16.8281 17.5312 16.5234 17.3789C16.2246 17.2266 15.8672 17.1504 15.4512 17.1504ZM22.2715 25.5V15.9902H23.7305L23.8447 17.3965C23.9854 17.1973 24.1377 17.0156 24.3018 16.8516C24.4717 16.6816 24.6504 16.5352 24.8379 16.4121C25.1191 16.2246 25.4238 16.0811 25.752 15.9814C26.0859 15.876 26.4375 15.8203 26.8066 15.8145C27.3047 15.8145 27.7559 15.8848 28.1602 16.0254C28.5703 16.166 28.9189 16.3857 29.2061 16.6846C29.4932 16.9834 29.7129 17.3643 29.8652 17.8271C30.0234 18.2842 30.1025 18.8291 30.1025 19.4619V25.5H28.4766V19.4971C28.4766 19.0752 28.4297 18.7178 28.3359 18.4248C28.2422 18.1318 28.1045 17.8945 27.9229 17.7129C27.7354 17.5312 27.5068 17.3994 27.2373 17.3174C26.9736 17.2354 26.6689 17.1943 26.3232 17.1943C26.0244 17.1943 25.7461 17.2383 25.4883 17.3262C25.2305 17.4082 24.9932 17.5225 24.7764 17.6689C24.6006 17.7979 24.4365 17.9473 24.2842 18.1172C24.1377 18.2871 24.0088 18.4746 23.8975 18.6797V25.5H22.2715Z" fill="#BED8FF"/>
<path d="M1.21735 3.10352L1.25153 3.80078C1.40192 3.54102 1.59788 3.33822 1.83942 3.19238C2.08551 3.04655 2.38173 2.97135 2.72809 2.9668C2.92405 2.9668 3.09951 2.98958 3.25446 3.03516C3.41396 3.07617 3.55296 3.1377 3.67145 3.21973C3.75804 3.28353 3.83551 3.361 3.90387 3.45215C3.97679 3.54329 4.03831 3.64583 4.08844 3.75977C4.15224 3.65495 4.22744 3.55697 4.31403 3.46582C4.40061 3.37467 4.49404 3.29492 4.5943 3.22656C4.7219 3.14909 4.86318 3.08757 5.01813 3.04199C5.17763 2.99642 5.35081 2.97135 5.53766 2.9668C5.79287 2.9668 6.02301 3.00553 6.22809 3.08301C6.43317 3.15592 6.60634 3.2653 6.74762 3.41113C6.90257 3.5752 7.02106 3.78939 7.10309 4.05371C7.18512 4.31348 7.22614 4.62109 7.22614 4.97656V10.5H6.02301V4.96289C6.02301 4.80794 6.00478 4.67122 5.96832 4.55273C5.93186 4.43424 5.87946 4.33626 5.8111 4.25879C5.73818 4.18587 5.64703 4.13118 5.53766 4.09473C5.43284 4.05827 5.30979 4.04004 5.16852 4.04004C5.01813 4.04004 4.88824 4.06055 4.77887 4.10156C4.66949 4.14258 4.57835 4.19727 4.50543 4.26562C4.43252 4.33854 4.37555 4.42285 4.33453 4.51855C4.29352 4.6097 4.26617 4.71224 4.2525 4.82617C4.2525 4.84896 4.2525 4.87174 4.2525 4.89453C4.2525 4.91276 4.2525 4.93555 4.2525 4.96289V10.5H3.04938V4.95605C3.04938 4.80111 3.03115 4.66439 2.99469 4.5459C2.96279 4.42741 2.91038 4.32943 2.83746 4.25195C2.7691 4.17904 2.68252 4.12663 2.5777 4.09473C2.47744 4.05827 2.35895 4.04004 2.22223 4.04004C2.07184 4.04004 1.93968 4.05827 1.82574 4.09473C1.71637 4.12663 1.62295 4.17448 1.54547 4.23828C1.48623 4.28841 1.43382 4.34538 1.38824 4.40918C1.34723 4.47298 1.31305 4.54134 1.28571 4.61426V10.5H0.0825806V3.10352H1.21735ZM9.24274 3.10352H13.023V9.40625H15.4361V10.5H9.24274V9.40625H11.7584V4.2041H9.24274V3.10352ZM11.5943 1.16211C11.5943 1.05273 11.6102 0.950195 11.6422 0.854492C11.6786 0.758789 11.7333 0.676758 11.8062 0.608398C11.8655 0.549154 11.9407 0.503581 12.0318 0.47168C12.1275 0.435221 12.2346 0.416992 12.3531 0.416992C12.4716 0.416992 12.5764 0.435221 12.6675 0.47168C12.7587 0.503581 12.8339 0.549154 12.8931 0.608398C12.966 0.672201 13.0207 0.751953 13.0572 0.847656C13.0936 0.943359 13.1119 1.04818 13.1119 1.16211C13.1119 1.36719 13.0481 1.53809 12.9205 1.6748C12.7929 1.81152 12.6037 1.87988 12.3531 1.87988C12.0979 1.87988 11.9065 1.81152 11.7789 1.6748C11.6558 1.53809 11.5943 1.36719 11.5943 1.16211ZM19.6675 7.04785L18.7379 7.94336V10.5H17.4664V0H18.7379V6.42578L19.565 5.53711L21.9918 3.10352H23.5298L20.5357 6.18652L23.9879 10.5H22.3814L19.6675 7.04785Z" fill="#999999"/>
</svg>
