<svg width="67" height="14" viewBox="0 0 67 14" fill="none" xmlns="http://www.w3.org/2000/svg">
<path d="M4.1582 5.60352L4.19238 6.30078C4.34277 6.04102 4.53874 5.83822 4.78027 5.69238C5.02637 5.54655 5.32259 5.47135 5.66895 5.4668C5.86491 5.4668 6.04036 5.48958 6.19531 5.53516C6.35482 5.57617 6.49382 5.6377 6.6123 5.71973C6.69889 5.78353 6.77637 5.861 6.84473 5.95215C6.91764 6.04329 6.97917 6.14583 7.0293 6.25977C7.0931 6.15495 7.16829 6.05697 7.25488 5.96582C7.34147 5.87467 7.4349 5.79492 7.53516 5.72656C7.66276 5.64909 7.80404 5.58757 7.95898 5.54199C8.11849 5.49642 8.29167 5.47135 8.47852 5.4668C8.73372 5.4668 8.96387 5.50553 9.16895 5.58301C9.37402 5.65592 9.5472 5.7653 9.68848 5.91113C9.84342 6.0752 9.96191 6.28939 10.0439 6.55371C10.126 6.81348 10.167 7.12109 10.167 7.47656V13H8.96387V7.46289C8.96387 7.30794 8.94564 7.17122 8.90918 7.05273C8.87272 6.93424 8.82031 6.83626 8.75195 6.75879C8.67904 6.68587 8.58789 6.63118 8.47852 6.59473C8.3737 6.55827 8.25065 6.54004 8.10938 6.54004C7.95898 6.54004 7.8291 6.56055 7.71973 6.60156C7.61035 6.64258 7.51921 6.69727 7.44629 6.76562C7.37337 6.83854 7.31641 6.92285 7.27539 7.01855C7.23438 7.1097 7.20703 7.21224 7.19336 7.32617C7.19336 7.34896 7.19336 7.37174 7.19336 7.39453C7.19336 7.41276 7.19336 7.43555 7.19336 7.46289V13H5.99023V7.45605C5.99023 7.30111 5.97201 7.16439 5.93555 7.0459C5.90365 6.92741 5.85124 6.82943 5.77832 6.75195C5.70996 6.67904 5.62337 6.62663 5.51855 6.59473C5.41829 6.55827 5.2998 6.54004 5.16309 6.54004C5.0127 6.54004 4.88053 6.55827 4.7666 6.59473C4.65723 6.62663 4.5638 6.67448 4.48633 6.73828C4.42708 6.78841 4.37467 6.84538 4.3291 6.90918C4.28809 6.97298 4.25391 7.04134 4.22656 7.11426V13H3.02344V5.60352H4.1582ZM12.1836 5.60352H15.9639V11.9062H18.377V13H12.1836V11.9062H14.6992V6.7041H12.1836V5.60352ZM14.5352 3.66211C14.5352 3.55273 14.5511 3.4502 14.583 3.35449C14.6195 3.25879 14.6742 3.17676 14.7471 3.1084C14.8063 3.04915 14.8815 3.00358 14.9727 2.97168C15.0684 2.93522 15.1755 2.91699 15.2939 2.91699C15.4124 2.91699 15.5173 2.93522 15.6084 2.97168C15.6995 3.00358 15.7747 3.04915 15.834 3.1084C15.9069 3.1722 15.9616 3.25195 15.998 3.34766C16.0345 3.44336 16.0527 3.54818 16.0527 3.66211C16.0527 3.86719 15.9889 4.03809 15.8613 4.1748C15.7337 4.31152 15.5446 4.37988 15.2939 4.37988C15.0387 4.37988 14.8473 4.31152 14.7197 4.1748C14.5967 4.03809 14.5352 3.86719 14.5352 3.66211ZM22.6084 9.54785L21.6787 10.4434V13H20.4072V2.5H21.6787V8.92578L22.5059 8.03711L24.9326 5.60352H26.4707L23.4766 8.68652L26.9287 13H25.3223L22.6084 9.54785Z" fill="#999999"/>
<path d="M38.0928 11.3213C37.8936 11.5557 37.6826 11.7695 37.46 11.9629C37.2373 12.1504 37.0059 12.3145 36.7656 12.4551C36.3555 12.7012 35.9131 12.8828 35.4385 13C34.9639 13.123 34.4658 13.1816 33.9443 13.1758C33.417 13.1699 32.9307 13.0908 32.4854 12.9385C32.0459 12.7803 31.6504 12.5635 31.2988 12.2881C30.9473 12.0186 30.6396 11.6992 30.376 11.3301C30.1123 10.9609 29.8926 10.5596 29.7168 10.126C29.5352 9.69824 29.3975 9.25 29.3037 8.78125C29.2158 8.30664 29.1689 7.8291 29.1631 7.34863V5.86328C29.1689 5.38867 29.21 4.91699 29.2861 4.44824C29.3682 3.97363 29.4912 3.51953 29.6553 3.08594C29.8193 2.65234 30.0244 2.25098 30.2705 1.88184C30.5166 1.50684 30.8125 1.18164 31.1582 0.90625C31.498 0.636719 31.8848 0.422852 32.3184 0.264648C32.752 0.106445 33.2383 0.0273438 33.7773 0.0273438C34.375 0.0273438 34.9258 0.121094 35.4297 0.308594C35.9336 0.490234 36.373 0.750977 36.748 1.09082C37.123 1.43652 37.4248 1.85254 37.6533 2.33887C37.8818 2.81934 38.0225 3.3584 38.0752 3.95605H36.4668C36.4023 3.58691 36.3027 3.24707 36.168 2.93652C36.0332 2.62012 35.8574 2.35059 35.6406 2.12793C35.418 1.90527 35.1543 1.73242 34.8496 1.60938C34.5449 1.48047 34.1904 1.41602 33.7861 1.41602C33.3994 1.41602 33.0566 1.4834 32.7578 1.61816C32.459 1.74707 32.1982 1.92285 31.9756 2.14551C31.7529 2.36816 31.5684 2.62891 31.4219 2.92773C31.2754 3.2207 31.1553 3.53125 31.0615 3.85938C30.9678 4.1875 30.9004 4.52148 30.8594 4.86133C30.8184 5.20117 30.7979 5.5293 30.7979 5.8457V7.34863C30.8037 7.6709 30.8301 8.00488 30.877 8.35059C30.9297 8.69043 31.0088 9.02441 31.1143 9.35254C31.2197 9.68066 31.3545 9.99121 31.5186 10.2842C31.6826 10.5771 31.8818 10.835 32.1162 11.0576C32.3447 11.2803 32.6113 11.459 32.916 11.5938C33.2207 11.7227 33.5664 11.79 33.9531 11.7959C34.1758 11.8018 34.4072 11.793 34.6475 11.7695C34.8936 11.7461 35.1309 11.6992 35.3594 11.6289C35.5879 11.5586 35.8018 11.4648 36.001 11.3477C36.2002 11.2246 36.3672 11.0664 36.502 10.873L36.5195 7.99902H33.918V6.62793H38.0664L38.0928 11.3213ZM44.8252 13.1758C44.1572 13.1758 43.542 13.0615 42.9795 12.833C42.4229 12.6045 41.9453 12.2852 41.5469 11.875C41.1484 11.4648 40.8379 10.9785 40.6152 10.416C40.3926 9.85352 40.2812 9.24121 40.2812 8.5791V8.20996C40.2812 7.44238 40.4043 6.75684 40.6504 6.15332C40.8965 5.54395 41.2246 5.02832 41.6348 4.60645C42.0391 4.19043 42.499 3.87109 43.0146 3.64844C43.5361 3.42578 44.0693 3.31445 44.6143 3.31445C45.2998 3.31445 45.8975 3.43457 46.4072 3.6748C46.9229 3.90918 47.3506 4.23438 47.6904 4.65039C48.0303 5.07227 48.2822 5.56738 48.4463 6.13574C48.6162 6.7041 48.7012 7.31934 48.7012 7.98145V8.71094H41.9072V8.77246C41.9482 9.23535 42.0391 9.64258 42.1797 9.99414C42.3262 10.3457 42.5254 10.6562 42.7773 10.9258C43.0352 11.2129 43.3457 11.4385 43.709 11.6025C44.0723 11.7666 44.4736 11.8486 44.9131 11.8486C45.4932 11.8486 46.0088 11.7314 46.46 11.4971C46.9111 11.2627 47.2861 10.9521 47.585 10.5654L48.5781 11.3389C48.2617 11.8193 47.7871 12.2471 47.1543 12.6221C46.5273 12.9912 45.751 13.1758 44.8252 13.1758ZM44.6143 4.65039C44.2861 4.65039 43.9756 4.71191 43.6826 4.83496C43.3896 4.95215 43.126 5.125 42.8916 5.35352C42.6572 5.58789 42.458 5.875 42.2939 6.21484C42.1357 6.54883 42.0244 6.93555 41.96 7.375H47.0752V7.2959C47.0752 7.00293 47.0195 6.68945 46.9082 6.35547C46.7969 6.01562 46.6416 5.72266 46.4424 5.47656C46.2432 5.23047 45.9912 5.03125 45.6865 4.87891C45.3877 4.72656 45.0303 4.65039 44.6143 4.65039ZM51.4346 13V3.49023H52.8936L53.0078 4.89648C53.1484 4.69727 53.3008 4.51562 53.4648 4.35156C53.6348 4.18164 53.8135 4.03516 54.001 3.91211C54.2822 3.72461 54.5869 3.58105 54.915 3.48145C55.249 3.37598 55.6006 3.32031 55.9697 3.31445C56.4678 3.31445 56.9189 3.38477 57.3232 3.52539C57.7334 3.66602 58.082 3.88574 58.3691 4.18457C58.6562 4.4834 58.876 4.86426 59.0283 5.32715C59.1865 5.78418 59.2656 6.3291 59.2656 6.96191V13H57.6396V6.99707C57.6396 6.5752 57.5928 6.21777 57.499 5.9248C57.4053 5.63184 57.2676 5.39453 57.0859 5.21289C56.8984 5.03125 56.6699 4.89941 56.4004 4.81738C56.1367 4.73535 55.832 4.69434 55.4863 4.69434C55.1875 4.69434 54.9092 4.73828 54.6514 4.82617C54.3936 4.9082 54.1562 5.02246 53.9395 5.16895C53.7637 5.29785 53.5996 5.44727 53.4473 5.61719C53.3008 5.78711 53.1719 5.97461 53.0605 6.17969V13H51.4346Z" fill="#BED8FF"/>
</svg>
