<svg width="20" height="20" viewBox="0 0 20 20" fill="none" xmlns="http://www.w3.org/2000/svg">
<g clip-path="url(#clip0_301_13)">
<path d="M1.21931 2.13826C1.89274 2.13826 2.43862 2.68416 2.43862 3.35757V5.31611C3.165 4.05176 4.17638 2.97141 5.40345 2.15761C6.94433 1.13569 8.73971 0.59552 10.5955 0.59552C11.8646 0.59552 13.0964 0.844329 14.2566 1.33507C15.3766 1.80879 16.3822 2.48673 17.2455 3.35002C18.1088 4.21332 18.7867 5.21896 19.2605 6.33898C19.7512 7.4992 20 8.73096 20 10C20 11.2691 19.7512 12.5008 19.2604 13.661C18.7867 14.7811 18.1088 15.7867 17.2455 16.65C16.3822 17.5133 15.3765 18.1912 14.2565 18.6649C13.0963 19.1557 11.8646 19.4045 10.5955 19.4045C9.51175 19.4045 8.44882 19.2214 7.43621 18.8603C6.45763 18.5114 5.54814 18.0045 4.73299 17.354C3.92588 16.7098 3.23407 15.9431 2.67677 15.0752C2.10908 14.191 1.69688 13.226 1.45174 12.2071C1.29421 11.5524 1.69719 10.8939 2.35194 10.7363C3.00672 10.5788 3.66515 10.9819 3.82269 11.6366C4.18195 13.1297 5.04546 14.4833 6.2542 15.448C6.85805 15.9299 7.53129 16.3052 8.25526 16.5633C9.00427 16.8304 9.79164 16.9659 10.5955 16.9659C12.4561 16.9659 14.2055 16.2413 15.5211 14.9256C16.8368 13.6099 17.5614 11.8606 17.5614 9.99995C17.5614 8.13933 16.8368 6.39 15.5211 5.07433C14.2054 3.75866 12.4561 3.03407 10.5955 3.03407C9.22063 3.03407 7.89133 3.43372 6.75126 4.18981C5.76887 4.84137 4.97311 5.72282 4.42863 6.75724H5.77625C6.44968 6.75724 6.99556 7.30314 6.99556 7.97655C6.99556 8.64993 6.44968 9.19586 5.77625 9.19586H1.21931C0.545879 9.19586 1.06012e-07 8.64993 1.06012e-07 7.97655V3.35757C1.06012e-07 2.68416 0.545926 2.13826 1.21931 2.13826Z" fill="white"/>
</g>
<defs>
<clipPath id="clip0_301_13">
<rect width="20" height="20" fill="white" transform="matrix(-1 0 0 1 20 0)"/>
</clipPath>
</defs>
</svg>
