<svg width="20" height="20" viewBox="0 0 20 20" fill="none" xmlns="http://www.w3.org/2000/svg">
<g clip-path="url(#clip0_301_6)">
<path d="M18.7807 2.13826C18.1073 2.13826 17.5614 2.68416 17.5614 3.35757V5.31611C16.835 4.05176 15.8236 2.97141 14.5966 2.15761C13.0557 1.13569 11.2603 0.59552 9.40448 0.59552C8.13537 0.59552 6.90364 0.844329 5.74344 1.33507C4.62339 1.80879 3.6178 2.48673 2.75448 3.35002C1.89121 4.21332 1.21327 5.21896 0.739529 6.33898C0.248832 7.4992 0 8.73096 0 10C0 11.2691 0.248832 12.5008 0.739552 13.661C1.21327 14.7811 1.89123 15.7867 2.75452 16.65C3.61782 17.5133 4.62346 18.1912 5.74346 18.6649C6.90366 19.1557 8.1354 19.4045 9.4045 19.4045C10.4882 19.4045 11.5512 19.2214 12.5638 18.8603C13.5424 18.5114 14.4519 18.0045 15.267 17.354C16.0741 16.7098 16.7659 15.9431 17.3232 15.0752C17.8909 14.191 18.3031 13.226 18.5483 12.2071C18.7058 11.5524 18.3028 10.8939 17.6481 10.7363C16.9933 10.5788 16.3348 10.9819 16.1773 11.6366C15.818 13.1297 14.9545 14.4833 13.7458 15.448C13.142 15.9299 12.4687 16.3052 11.7447 16.5633C10.9957 16.8304 10.2084 16.9659 9.4045 16.9659C7.54386 16.9659 5.79453 16.2413 4.47888 14.9256C3.16321 13.6099 2.43862 11.8606 2.43862 9.99995C2.43862 8.13933 3.16319 6.39 4.47888 5.07433C5.79458 3.75866 7.54386 3.03407 9.4045 3.03407C10.7794 3.03407 12.1087 3.43372 13.2487 4.18981C14.2311 4.84137 15.0269 5.72282 15.5714 6.75724H14.2237C13.5503 6.75724 13.0044 7.30314 13.0044 7.97655C13.0044 8.64993 13.5503 9.19586 14.2237 9.19586H18.7807C19.4541 9.19586 20 8.64993 20 7.97655V3.35757C20 2.68416 19.4541 2.13826 18.7807 2.13826Z" fill="white"/>
</g>
<defs>
<clipPath id="clip0_301_6">
<rect width="20" height="20" fill="white"/>
</clipPath>
</defs>
</svg>
