<svg width="20" height="20" viewBox="0 0 20 20" fill="none" xmlns="http://www.w3.org/2000/svg">
<path d="M5.453 9.24096C6.08872 9.24096 6.60408 8.72561 6.60408 8.08988C6.60408 7.45416 6.08872 6.93881 5.453 6.93881H4.17772C4.62934 6.08515 5.26881 5.32864 6.04444 4.7442C7.19062 3.8805 8.55757 3.424 9.99747 3.424C10.7563 3.424 11.4997 3.55184 12.2067 3.80398C12.8902 4.04768 13.5258 4.40195 14.0958 4.85692C15.2369 5.76761 16.0521 7.04543 16.3913 8.45505C16.5182 8.98264 16.9897 9.33712 17.5095 9.33708C17.5985 9.33708 17.6892 9.32662 17.7797 9.30487C18.3977 9.15615 18.7783 8.53453 18.6295 7.91646C18.398 6.95455 18.0089 6.0436 17.473 5.20886C16.9469 4.38947 16.2938 3.66568 15.5319 3.05758C14.7623 2.44341 13.9038 1.96498 12.9799 1.63556C12.024 1.29468 11.0205 1.12183 9.99745 1.12183C9.01765 1.12183 8.05448 1.28065 7.13454 1.59385C6.24507 1.89671 5.41216 2.33804 4.659 2.90558C3.91471 3.46642 3.26565 4.13722 2.72991 4.89937C2.57683 5.11713 2.4344 5.3411 2.30213 5.57039V3.72931C2.30213 3.09358 1.78677 2.57823 1.15105 2.57823C0.515331 2.57823 0 3.09361 0 3.72933V8.08991C0 8.72563 0.515353 9.24098 1.15107 9.24098L5.453 9.24096Z" fill="white"/>
<path d="M18.8489 10.7591H14.5469C13.9112 10.7591 13.3959 11.2745 13.3959 11.9102C13.3959 12.5459 13.9112 13.0613 14.5469 13.0613H15.8192C15.3052 14.0378 14.554 14.87 13.6265 15.485C12.551 16.1983 11.2971 16.5756 10.0001 16.5761C9.24206 16.5758 8.49954 16.448 7.7932 16.1961C7.10975 15.9524 6.47418 15.5982 5.9041 15.1432C4.76302 14.2325 3.94782 12.9547 3.60866 11.5451C3.45996 10.927 2.83838 10.5465 2.22024 10.6952C1.60217 10.8439 1.22168 11.4656 1.3704 12.0836C1.60184 13.0455 1.99095 13.9565 2.52691 14.7912C3.05301 15.6106 3.7061 16.3344 4.46804 16.9425C5.23757 17.5567 6.09617 18.0351 7.01999 18.3645C7.97323 18.7044 8.97368 18.8772 9.99379 18.8781C9.99502 18.8781 9.99618 18.8782 9.99743 18.8782C9.99835 18.8782 9.99925 18.8782 10.0002 18.8782C10.001 18.8782 10.0017 18.8782 10.0025 18.8782C10.0034 18.8782 10.0044 18.8782 10.0053 18.8782C11.7545 18.8767 13.4465 18.3669 14.8989 17.4036C16.0573 16.6354 17.0121 15.6154 17.6978 14.4218V16.2708C17.6978 16.9065 18.2132 17.4219 18.8489 17.4219C19.4846 17.4219 20 16.9065 20 16.2708V11.9102C20 11.2745 19.4846 10.7591 18.8489 10.7591Z" fill="white"/>
</svg>
