<svg width="30" height="30" viewBox="0 0 30 30" fill="none" xmlns="http://www.w3.org/2000/svg">
<path fill-rule="evenodd" clip-rule="evenodd" d="M3.75 17.5C3.75 17.1685 3.8817 16.8505 4.11612 16.6161C4.35054 16.3817 4.66848 16.25 5 16.25H20C20.9946 16.25 21.9484 15.8549 22.6517 15.1517C23.3549 14.4484 23.75 13.4946 23.75 12.5V7.5C23.75 7.16848 23.8817 6.85054 24.1161 6.61612C24.3505 6.3817 24.6685 6.25 25 6.25C25.3315 6.25 25.6495 6.3817 25.8839 6.61612C26.1183 6.85054 26.25 7.16848 26.25 7.5V12.5C26.25 14.1576 25.5915 15.7473 24.4194 16.9194C23.2473 18.0915 21.6576 18.75 20 18.75H5C4.66848 18.75 4.35054 18.6183 4.11612 18.3839C3.8817 18.1495 3.75 17.8315 3.75 17.5Z" fill="#5C5C5C"/>
<path fill-rule="evenodd" clip-rule="evenodd" d="M4.11626 18.3838C3.88192 18.1494 3.75027 17.8315 3.75027 17.5C3.75027 17.1686 3.88192 16.8507 4.11626 16.6163L9.11626 11.6163C9.35201 11.3886 9.66776 11.2626 9.99551 11.2654C10.3233 11.2683 10.6368 11.3997 10.8685 11.6315C11.1003 11.8633 11.2318 12.1768 11.2346 12.5045C11.2374 12.8323 11.1115 13.148 10.8838 13.3838L6.76751 17.5L10.8838 21.6163C11.0031 21.7316 11.0984 21.8695 11.1639 22.022C11.2294 22.1745 11.2639 22.3385 11.2653 22.5045C11.2668 22.6705 11.2351 22.8351 11.1723 22.9887C11.1094 23.1423 11.0166 23.2819 10.8993 23.3993C10.7819 23.5166 10.6423 23.6094 10.4887 23.6723C10.3351 23.7351 10.1705 23.7668 10.0045 23.7653C9.83853 23.7639 9.67451 23.7294 9.522 23.6639C9.3695 23.5984 9.23157 23.5032 9.11626 23.3838L4.11626 18.3838Z" fill="#5C5C5C"/>
</svg>
