<svg width="20" height="20" viewBox="0 0 20 20" fill="none" xmlns="http://www.w3.org/2000/svg">
<path d="M10.8333 3.33331H15.3333C15.8001 3.33331 16.0341 3.33331 16.2123 3.42414C16.3691 3.50404 16.4956 3.63143 16.5755 3.78823C16.6663 3.96649 16.6666 4.20002 16.6666 4.66673V5.28731C16.6666 5.48701 16.6666 5.5879 16.6439 5.68283C16.6235 5.76786 16.5893 5.84909 16.5436 5.92365C16.4921 6.00774 16.4202 6.07981 16.2761 6.22394L15 7.50008M6.24965 3.33331H4.66632C4.19961 3.33331 3.96649 3.33331 3.78823 3.42414C3.63143 3.50404 3.50404 3.63143 3.42414 3.78823C3.33331 3.96649 3.33331 4.20002 3.33331 4.66673V5.28111C3.33331 5.48494 3.33331 5.58692 3.35634 5.68283C3.37675 5.76786 3.4105 5.84909 3.4562 5.92365C3.50771 6.00771 3.5799 6.0799 3.72394 6.22394L7.94289 10.4429C8.087 10.587 8.15868 10.6586 8.21021 10.7428C8.2559 10.8173 8.29011 10.8988 8.31053 10.9839C8.33331 11.0788 8.33331 11.1796 8.33331 11.3793V15.3425C8.33331 16.0568 8.33331 16.4142 8.48373 16.6293C8.61515 16.8171 8.81781 16.9425 9.04456 16.976C9.30423 17.0143 9.6239 16.8547 10.2628 16.5353L10.9295 16.202C11.1971 16.0682 11.3305 16.0011 11.4282 15.9012C11.5146 15.813 11.5808 15.7071 11.6211 15.5902C11.6666 15.4582 11.6666 15.3083 11.6666 15.0091V11.3855C11.6666 11.1816 11.6666 11.0798 11.6896 10.9839C11.7101 10.8988 11.7438 10.8174 11.7896 10.7429C11.8409 10.6591 11.9126 10.5873 12.0557 10.4442L12.0573 10.4428L12.9167 9.5834M12.9167 9.5834L4.16665 0.833313M12.9167 9.5834L15.8333 12.5" stroke="white" stroke-width="1.5" stroke-linecap="round" stroke-linejoin="round"/>
</svg>
