<svg width="20" height="20" viewBox="0 0 20 20" fill="none" xmlns="http://www.w3.org/2000/svg">
<g clip-path="url(#clip0_304_10)">
<path d="M16.1753 8.37015L16.8962 9.09093L0.909059 9.09093C0.406998 9.09093 -3.20384e-05 9.49796 -3.20384e-05 10C-3.20384e-05 10.5021 0.406998 10.9091 0.909059 10.9091L16.8962 10.9091L16.1753 11.63C15.9978 11.8075 15.909 12.0401 15.909 12.2728C15.909 12.5054 15.9977 12.7381 16.1753 12.9156C16.5303 13.2706 17.1059 13.2706 17.4609 12.9156L19.7337 10.6429C20.0887 10.2879 20.0887 9.71227 19.7337 9.35724L17.4609 7.08451C17.1059 6.72948 16.5303 6.72948 16.1753 7.08451C15.8203 7.43948 15.8203 8.01512 16.1753 8.37015Z" fill="white"/>
</g>
<defs>
<clipPath id="clip0_304_10">
<rect width="20" height="20" fill="white" transform="matrix(0 1 -1 0 20 0)"/>
</clipPath>
</defs>
</svg>
