<svg width="20" height="20" viewBox="0 0 20 20" fill="none" xmlns="http://www.w3.org/2000/svg">
<g clip-path="url(#clip0_296_2)">
<path d="M20 4.96211C20 4.32319 19.4821 3.80524 18.8431 3.80524L3.96293 3.80524L4.88155 2.87553C5.10433 2.65007 5.2155 2.35622 5.2155 2.06246C5.2155 1.76408 5.10076 1.46578 4.87173 1.2395C4.41724 0.790433 3.68478 0.794817 3.23571 1.2493L0.334011 4.18602C0.119979 4.40263 6.10352e-05 4.6948 6.10352e-05 4.99911C6.10352e-05 5.0014 6.10352e-05 5.00376 8.30708e-05 5.00603C0.00193407 5.31283 0.125554 5.60637 0.343839 5.82201L3.24109 8.68473C3.69557 9.13379 4.42804 9.12941 4.8771 8.67492C5.32621 8.22041 5.3218 7.48795 4.8673 7.03888L3.93629 6.11896L18.8432 6.11896C19.4821 6.11898 20 5.60104 20 4.96211Z" fill="white"/>
<path d="M6.10352e-05 13.0379C6.10352e-05 13.6768 0.518009 14.1948 1.15693 14.1948H16.0638L15.1328 15.1147C14.6783 15.5637 14.6739 16.2962 15.123 16.7507C15.5721 17.2052 16.3045 17.2096 16.759 16.7605L19.6562 13.8978C19.8745 13.6822 19.9982 13.3887 20 13.0819C20 13.0796 20 13.0772 20 13.0749C20 12.7706 19.8801 12.4784 19.6661 12.2618L16.7643 9.32506C16.3153 8.87057 15.5828 8.86619 15.1283 9.31525C14.6738 9.76431 14.6694 10.4968 15.1185 10.9513L16.0371 11.881H1.15693C0.518009 11.881 6.10352e-05 12.399 6.10352e-05 13.0379Z" fill="white"/>
</g>
<defs>
<clipPath id="clip0_296_2">
<rect width="20" height="20" fill="white" transform="matrix(0 -1 1 0 0 20)"/>
</clipPath>
</defs>
</svg>
