<svg width="20" height="20" viewBox="0 0 20 20" fill="none" xmlns="http://www.w3.org/2000/svg">
<path d="M19.7118 9.29261L10.7101 0.295697C10.6171 0.202001 10.5065 0.127632 10.3846 0.0768805C10.2628 0.0261293 10.132 0 10 0C9.86796 0 9.73723 0.0261293 9.61535 0.0768805C9.49347 0.127632 9.38285 0.202001 9.28987 0.295697L0.288239 9.29261C0.149456 9.43319 0.0554425 9.6117 0.0180616 9.80562C-0.0193193 9.99954 0.00160719 10.2002 0.0782005 10.3822C0.153234 10.5648 0.280655 10.7211 0.444405 10.8314C0.608155 10.9417 0.800906 11.001 0.998368 11.002H1.99855V18.2995C2.01678 18.7671 2.21961 19.2085 2.56264 19.527C2.90567 19.8454 3.36096 20.0152 3.82888 19.9989H6.49937C6.76463 19.9989 7.01903 19.8936 7.2066 19.7061C7.39417 19.5187 7.49955 19.2644 7.49955 18.9993V14.101C7.49955 13.8358 7.60492 13.5816 7.79249 13.3941C7.98006 13.2066 8.23446 13.1013 8.49973 13.1013H11.5003C11.7655 13.1013 12.0199 13.2066 12.2075 13.3941C12.3951 13.5816 12.5005 13.8358 12.5005 14.101V18.9993C12.5005 19.2644 12.6058 19.5187 12.7934 19.7061C12.981 19.8936 13.2354 19.9989 13.5006 19.9989H16.1711C16.639 20.0152 17.0943 19.8454 17.4374 19.527C17.7804 19.2085 17.9832 18.7671 18.0015 18.2995V11.002H19.0016C19.1991 11.001 19.3918 10.9417 19.5556 10.8314C19.7193 10.7211 19.8468 10.5648 19.9218 10.3822C19.9984 10.2002 20.0193 9.99954 19.9819 9.80562C19.9446 9.6117 19.8505 9.43319 19.7118 9.29261Z" fill="white"/>
</svg>
