<svg width="20" height="20" viewBox="0 0 20 20" fill="none" xmlns="http://www.w3.org/2000/svg">
<g clip-path="url(#clip0_304_13)">
<path d="M4.07922 5.1606C4.07856 5.1458 4.07717 5.13101 4.07723 5.11621C4.07723 5.09343 4.07882 5.07091 4.08047 5.04838C4.08113 5.03907 4.08113 5.02969 4.08199 5.02038C4.0841 4.99911 4.08767 4.97824 4.0911 4.95731C4.09289 4.94634 4.09408 4.93538 4.09619 4.92455C4.09976 4.90665 4.10458 4.88921 4.10913 4.87164C4.11263 4.85777 4.11574 4.84377 4.11983 4.82997C4.12406 4.8161 4.12941 4.80262 4.13417 4.78895C4.14018 4.77198 4.14579 4.75487 4.15273 4.73816C4.15695 4.72779 4.16224 4.71795 4.16679 4.70778C4.17558 4.68863 4.1841 4.66941 4.19407 4.65072C4.19869 4.64207 4.20418 4.63394 4.20906 4.62536C4.22003 4.6062 4.23086 4.58698 4.24328 4.56842C4.25279 4.55416 4.26355 4.54081 4.27372 4.52708C4.28257 4.51519 4.29063 4.50297 4.30008 4.49141C4.32101 4.46565 4.34334 4.44108 4.36691 4.41751C4.36705 4.41737 4.36718 4.41718 4.36731 4.41704L8.49411 0.290115C8.88094 -0.0967864 9.50826 -0.0967864 9.89516 0.290115C10.2821 0.676951 10.2821 1.30426 9.89516 1.69116L7.57494 4.01138C11.5239 4.39829 14.9318 7.32145 15.7449 11.4091C16.0577 12.9821 15.952 14.5806 15.4725 16.0609C15.4651 16.0839 15.4583 16.1071 15.4506 16.13C15.0105 17.4531 14.2702 18.6791 13.2607 19.7043C13.2201 19.7456 13.1764 19.7814 13.131 19.814C12.9592 19.9372 12.7573 20 12.5547 20C12.5233 20 12.4919 19.9985 12.4607 19.9955C12.2419 19.9748 12.0284 19.8815 11.8596 19.7152C11.4697 19.3313 11.4648 18.7041 11.8488 18.3142C12.0868 18.0725 12.3051 17.8161 12.5043 17.5482C13.7222 15.9108 14.2054 13.8261 13.8015 11.7957C13.1595 8.56828 10.4545 6.26285 7.3303 5.97892L9.89522 8.54391C10.2821 8.93081 10.2821 9.55805 9.89522 9.94495C9.70177 10.1384 9.44822 10.2352 9.19467 10.2352C8.94111 10.2352 8.68756 10.1385 8.49417 9.94495L4.3722 5.82291C4.37075 5.82146 4.36923 5.81988 4.36777 5.81842L4.36731 5.81803C4.36645 5.81717 4.36579 5.81624 4.36493 5.81539C4.34261 5.793 4.32141 5.76955 4.30133 5.74505C4.29552 5.73804 4.29063 5.73058 4.28508 5.72345C4.27075 5.70502 4.25655 5.68653 4.24354 5.66704C4.23594 5.65568 4.22947 5.64386 4.2224 5.63224C4.21276 5.61639 4.20286 5.6008 4.19407 5.58435C4.18582 5.5689 4.17875 5.55298 4.17142 5.53726C4.16514 5.52392 4.15854 5.51091 4.15286 5.49724C4.1444 5.4769 4.13747 5.45616 4.1304 5.43542C4.12703 5.42551 4.12314 5.41593 4.1201 5.40583C4.11164 5.37802 4.10484 5.34989 4.0989 5.32162C4.0981 5.31799 4.09692 5.31455 4.09619 5.31085C4.09612 5.31059 4.09612 5.31026 4.09606 5.31C4.08965 5.2775 4.08476 5.24481 4.08166 5.21198C4.08001 5.19468 4.08001 5.17764 4.07922 5.1606Z" fill="white"/>
</g>
<defs>
<clipPath id="clip0_304_13">
<rect width="20" height="20" fill="white" transform="matrix(-1 0 0 1 20 0)"/>
</clipPath>
</defs>
</svg>
