<svg width="28" height="28" viewBox="0 0 28 28" fill="none" xmlns="http://www.w3.org/2000/svg">
<path fill-rule="evenodd" clip-rule="evenodd" d="M6.0235 4.4555C5.83334 4.82883 5.83334 5.31883 5.83334 6.3V21.7C5.83334 22.68 5.83334 23.17 6.0235 23.5445C6.19153 23.8736 6.45944 24.1411 6.78884 24.3087C7.16217 24.5 7.65217 24.5 8.63334 24.5H8.86667C9.84667 24.5 10.3367 24.5 10.7112 24.3098C11.0407 24.142 11.3087 23.8741 11.4765 23.5445C11.6667 23.1712 11.6667 22.6812 11.6667 21.7V6.3C11.6667 5.32 11.6667 4.83 11.4765 4.4555C11.3087 4.12593 11.0407 3.858 10.7112 3.69017C10.3378 3.5 9.84784 3.5 8.86667 3.5H8.63334C7.65334 3.5 7.16334 3.5 6.78884 3.69017C6.45926 3.858 6.19133 4.12593 6.0235 4.4555ZM16.5235 4.4555C16.3333 4.82883 16.3333 5.31883 16.3333 6.3V21.7C16.3333 22.68 16.3333 23.17 16.5247 23.5445C16.6924 23.8735 16.9599 24.1409 17.2888 24.3087C17.6622 24.5 18.1522 24.5 19.1333 24.5H19.3667C20.3467 24.5 20.8367 24.5 21.2112 24.3098C21.5403 24.1418 21.8078 23.8739 21.9753 23.5445C22.1667 23.1712 22.1667 22.6812 22.1667 21.7V6.3C22.1667 5.32 22.1667 4.83 21.9765 4.4555C21.8087 4.12593 21.5407 3.858 21.2112 3.69017C20.8378 3.5 20.3478 3.5 19.3667 3.5H19.1333C18.1533 3.5 17.6633 3.5 17.2888 3.69017C16.9597 3.85819 16.691 4.1261 16.5235 4.4555Z" fill="#DBDBDB"/>
</svg>
