<svg width="20" height="20" viewBox="0 0 20 20" fill="none" xmlns="http://www.w3.org/2000/svg">
<g clip-path="url(#clip0_304_8)">
<path d="M3.8247 11.6299L3.10385 10.9091L19.0909 10.9091C19.593 10.9091 20 10.502 20 9.99997C20 9.49791 19.593 9.09088 19.0909 9.09088H3.10385L3.8247 8.37004C4.00221 8.19252 4.091 7.95985 4.091 7.72725C4.091 7.49458 4.00227 7.26191 3.8247 7.0844C3.46967 6.72937 2.89409 6.72937 2.53906 7.0844L0.266334 9.35713C-0.0886965 9.7121 -0.0886965 10.2877 0.266334 10.6428L2.53906 12.9155C2.89409 13.2705 3.46967 13.2705 3.8247 12.9155C4.17973 12.5605 4.17973 11.9849 3.8247 11.6299Z" fill="white"/>
</g>
<defs>
<clipPath id="clip0_304_8">
<rect width="20" height="20" fill="white" transform="matrix(0 -1 1 0 0 20)"/>
</clipPath>
</defs>
</svg>
