<svg width="20" height="20" viewBox="0 0 20 20" fill="none" xmlns="http://www.w3.org/2000/svg">
<g clip-path="url(#clip0_304_6)">
<path d="M15.9208 5.1606C15.9214 5.1458 15.9228 5.13101 15.9228 5.11621C15.9228 5.09343 15.9212 5.07091 15.9195 5.04838C15.9189 5.03907 15.9189 5.02969 15.918 5.02038C15.9159 4.99911 15.9123 4.97824 15.9089 4.95731C15.9071 4.94634 15.9059 4.93538 15.9038 4.92455C15.9002 4.90665 15.8954 4.88921 15.8909 4.87164C15.8874 4.85777 15.8843 4.84377 15.8802 4.82997C15.8759 4.8161 15.8706 4.80262 15.8658 4.78895C15.8598 4.77198 15.8542 4.75487 15.8473 4.73816C15.843 4.72779 15.8378 4.71795 15.8332 4.70778C15.8244 4.68863 15.8159 4.66941 15.8059 4.65072C15.8013 4.64207 15.7958 4.63394 15.7909 4.62536C15.78 4.6062 15.7691 4.58698 15.7567 4.56842C15.7472 4.55416 15.7364 4.54081 15.7263 4.52708C15.7174 4.51519 15.7094 4.50297 15.6999 4.49141C15.679 4.46565 15.6567 4.44108 15.6331 4.41751C15.633 4.41737 15.6328 4.41718 15.6327 4.41704L11.5059 0.290115C11.1191 -0.0967864 10.4917 -0.0967864 10.1048 0.290115C9.71794 0.676951 9.71794 1.30426 10.1048 1.69116L12.4251 4.01138C8.47607 4.39829 5.06819 7.32145 4.25509 11.4091C3.94229 12.9821 4.04796 14.5806 4.52753 16.0609C4.53493 16.0839 4.54173 16.1071 4.54939 16.13C4.98946 17.4531 5.72984 18.6791 6.7393 19.7043C6.77985 19.7456 6.82358 19.7814 6.86902 19.814C7.04081 19.9372 7.24271 20 7.44534 20C7.47671 20 7.50809 19.9985 7.53933 19.9955C7.75814 19.9748 7.9716 19.8815 8.14042 19.7152C8.53029 19.3313 8.53518 18.7041 8.15125 18.3142C7.91322 18.0725 7.69493 17.8161 7.49567 17.5482C6.27777 15.9108 5.79464 13.8261 6.19851 11.7957C6.84049 8.56828 9.54549 6.26285 12.6697 5.97892L10.1048 8.54391C9.71788 8.93081 9.71788 9.55805 10.1048 9.94495C10.2982 10.1384 10.5518 10.2352 10.8053 10.2352C11.0589 10.2352 11.3124 10.1385 11.5058 9.94495L15.6278 5.82291C15.6293 5.82146 15.6308 5.81988 15.6322 5.81842L15.6327 5.81803C15.6335 5.81717 15.6342 5.81624 15.6351 5.81539C15.6574 5.793 15.6786 5.76955 15.6987 5.74505C15.7045 5.73804 15.7094 5.73058 15.7149 5.72345C15.7292 5.70502 15.7434 5.68653 15.7565 5.66704C15.7641 5.65568 15.7705 5.64386 15.7776 5.63224C15.7872 5.61639 15.7971 5.6008 15.8059 5.58435C15.8142 5.5689 15.8213 5.55298 15.8286 5.53726C15.8349 5.52392 15.8415 5.51091 15.8471 5.49724C15.8556 5.4769 15.8625 5.45616 15.8696 5.43542C15.873 5.42551 15.8769 5.41593 15.8799 5.40583C15.8884 5.37802 15.8952 5.34989 15.9011 5.32162C15.9019 5.31799 15.9031 5.31455 15.9038 5.31085C15.9039 5.31059 15.9039 5.31026 15.9039 5.31C15.9103 5.2775 15.9152 5.24481 15.9183 5.21198C15.92 5.19468 15.92 5.17764 15.9208 5.1606Z" fill="white"/>
</g>
<defs>
<clipPath id="clip0_304_6">
<rect width="20" height="20" fill="white"/>
</clipPath>
</defs>
</svg>
